HIERARCHY
ROOT Hips
{
	OFFSET	0.00	0.00	0.00
	CHANNELS 6 Xposition Yposition Zposition Zrotation Xrotation Yrotation
	JOINT LeftUpLeg
	{
		OFFSET	 0.126116	-0.014019	-0.065224
		CHANNELS 3 Zrotation Xrotation Yrotation
		JOINT LeftLeg
		{
			OFFSET	 0.000000	 0.000000	 0.569914
			CHANNELS 3 Zrotation Xrotation Yrotation
			JOINT LeftFoot
			{
				OFFSET	 0.000000	 0.000000	 0.544423
				CHANNELS 3 Zrotation Xrotation Yrotation
				JOINT LeftToeBase
				{
					OFFSET	 0.000000	 0.000000	 0.207117
					CHANNELS 3 Zrotation Xrotation Yrotation
					End Site
					{
						OFFSET	 0.000000	 0.000000	 0.207117
					}
				}
			}
		}
	}
	JOINT RightUpLeg
	{
		OFFSET	-0.124023	-0.008373	-0.065224
		CHANNELS 3 Zrotation Xrotation Yrotation
		JOINT RightLeg
		{
			OFFSET	 0.000000	 0.000000	 0.570047
			CHANNELS 3 Zrotation Xrotation Yrotation
			JOINT RightFoot
			{
				OFFSET	 0.000000	 0.000000	 0.544354
				CHANNELS 3 Zrotation Xrotation Yrotation
				JOINT RightToeBase
				{
					OFFSET	 0.000000	 0.000000	 0.207540
					CHANNELS 3 Zrotation Xrotation Yrotation
					End Site
					{
						OFFSET	 0.000000	 0.000000	 0.207540
					}
				}
			}
		}
	}
	JOINT Spine
	{
		OFFSET	 0.000184	-0.007763	 0.117403
		CHANNELS 3 Zrotation Xrotation Yrotation
		JOINT Spine1
		{
			OFFSET	 0.000000	 0.000000	 0.137269
			CHANNELS 3 Zrotation Xrotation Yrotation
			JOINT Spine2
			{
				OFFSET	 0.000000	 0.000000	 0.156879
				CHANNELS 3 Zrotation Xrotation Yrotation
				JOINT LeftShoulder
				{
					OFFSET	 0.080501	-0.002496	 0.160144
					CHANNELS 3 Zrotation Xrotation Yrotation
					JOINT LeftArm
					{
						OFFSET	 0.000000	 0.000000	 0.164363
						CHANNELS 3 Zrotation Xrotation Yrotation
						JOINT LeftForeArm
						{
							OFFSET	 0.000000	 0.000000	 0.364576
							CHANNELS 3 Zrotation Xrotation Yrotation
							JOINT LeftHand
							{
								OFFSET	 0.000000	 0.000000	 0.360812
								CHANNELS 3 Zrotation Xrotation Yrotation
								JOINT LeftHandIndex1
								{
									OFFSET	 0.000000	 0.000000	 0.086006
									CHANNELS 3 Zrotation Xrotation Yrotation
									JOINT LeftHandIndex2
									{
										OFFSET	 0.000000	 0.000000	 0.047236
										CHANNELS 3 Zrotation Xrotation Yrotation
										JOINT LeftHandIndex3
										{
											OFFSET	-0.004284	-0.000551	 0.038166
											CHANNELS 3 Zrotation Xrotation Yrotation
											End Site
											{
												OFFSET	-0.004284	-0.000551	 0.038166
											}
										}
									}
								}
							}
						}
					}
				}
				JOINT Neck
				{
					OFFSET	 0.000000	 0.000000	 0.176489
					CHANNELS 3 Zrotation Xrotation Yrotation
					JOINT Head
					{
						OFFSET	 0.000000	-0.001747	 0.077940
						CHANNELS 3 Zrotation Xrotation Yrotation
						End Site
						{
							OFFSET	 0.000000	-0.001747	 0.077940
						}
					}
				}
				JOINT RightShoulder
				{
					OFFSET	-0.080363	 0.000306	 0.159706
					CHANNELS 3 Zrotation Xrotation Yrotation
					JOINT RightArm
					{
						OFFSET	 0.000000	 0.000000	 0.164196
						CHANNELS 3 Zrotation Xrotation Yrotation
						JOINT RightForeArm
						{
							OFFSET	 0.000000	 0.000000	 0.365611
							CHANNELS 3 Zrotation Xrotation Yrotation
							JOINT RightHand
							{
								OFFSET	 0.000000	 0.000000	 0.360648
								CHANNELS 3 Zrotation Xrotation Yrotation
								JOINT RightHandIndex1
								{
									OFFSET	 0.000000	 0.000000	 0.069977
									CHANNELS 3 Zrotation Xrotation Yrotation
									JOINT RightHandIndex2
									{
										OFFSET	 0.000000	 0.000000	 0.052305
										CHANNELS 3 Zrotation Xrotation Yrotation
										JOINT RightHandIndex3
										{
											OFFSET	 0.009002	-0.000782	 0.042196
											CHANNELS 3 Zrotation Xrotation Yrotation
											End Site
											{
												OFFSET	 0.009002	-0.000782	 0.042196
											}
										}
									}
								}
							}
						}
					}
				}
			}
		}
	}
}
MOTION
Frames:    6
Frame Time: 0.03333334
-0.000643	 0.020080	 1.265981	 0.002834	-0.001633	-0.186173	 5.191896	-3.671207	 177.212800	 1.426229	-15.239920	-0.898042	-9.833891	 72.360280	 3.972426	-2.385833	 28.452760	 0.000004	-5.249072	-4.400124	-176.908700	-1.397995	-16.191850	 0.939555	 9.760998	 72.724390	-4.016656	 2.384658	 28.388730	 0.000004	 3.269639	 2.832286	-0.118859	 2.173598	 3.370664	 0.873328	-6.546152	-4.100771	-1.398505	-91.776180	 78.527490	 180.000000	 57.081570	 39.091570	-60.331190	-8.660586	 0.193371	-0.695126	-29.269190	 1.626408	-4.350975	-2.635965	 4.993658	 6.788941	-5.165319	 0.784187	 3.516649	-5.225038	 0.466231	 0.424329	-0.000002	-3.783157	-0.089647	-6.380706	 4.801365	 0.267767	 89.782110	 78.203900	 180.000000	-61.916260	 40.973170	 54.803260	 8.121605	 3.470279	 8.042377	 28.467090	 0.654454	 8.839408	 6.112037	 4.509576	-0.364401	 4.968462	 1.518543	-9.347576	 5.168945	 0.703820	 2.021906
-0.000637	 0.020429	 1.260793	 0.003065	-0.002082	-0.181816	 5.669473	-5.483029	 177.299100	 1.358700	-18.891220	-1.128026	-11.354500	 74.142220	 5.563639	-2.385833	 28.452760	 0.000004	-5.723007	-6.124191	-176.995400	-1.331393	-19.657380	 1.155855	 11.210630	 74.417020	-5.531027	 2.384658	 28.388730	 0.000004	 2.098595	 2.899785	-0.128064	 2.155296	 3.135120	 0.880255	-6.494105	-3.802058	-1.366317	-91.776210	 78.527420	-180.000000	 56.840400	 38.982400	-60.138990	-9.223716	 0.204820	-0.956543	-29.289450	 1.647235	-4.350383	-2.635965	 4.993658	 6.788941	-5.165319	 0.784187	 3.516649	-5.225038	 0.466231	 0.424329	-0.000002	-3.783157	-0.089647	-6.343547	 4.948927	 0.274397	 89.782110	 78.203890	 180.000000	-61.451460	 40.468720	 56.156310	 8.151098	 3.066936	 7.382640	 28.537980	 0.285020	 8.604973	 6.112037	 4.509576	-0.364401	 4.968462	 1.518543	-9.347576	 5.168945	 0.703820	 2.021906
-0.000628	 0.020790	 1.255493	 0.003343	-0.002367	-0.176241	 6.173974	-7.043358	 177.360200	 1.286914	-22.022370	-1.333340	-12.966660	 75.653220	 7.237365	-2.385833	 28.452760	 0.000004	-6.224174	-7.630618	-177.062700	-1.260634	-22.672700	 1.351770	 12.760210	 75.874380	-7.137748	 2.384658	 28.388730	 0.000004	 0.776314	 2.968245	-0.136318	 2.125927	 2.895277	 0.882708	-6.408303	-3.500134	-1.327258	-91.776180	 78.527470	 180.000000	 56.571450	 38.867180	-59.905690	-9.851517	 0.224381	-1.249900	-29.312130	 1.670588	-4.349718	-2.635965	 4.993658	 6.788941	-5.165319	 0.784187	 3.516649	-5.225038	 0.466231	 0.424329	-0.000002	-3.783157	-0.089647	-6.273020	 5.103034	 0.279801	 89.782190	 78.203890	 179.999900	-60.612520	 39.649970	 57.392410	 8.006062	 3.012375	 7.570235	 28.730580	-0.222826	 8.294307	 6.112037	 4.509576	-0.364401	 4.968462	 1.518543	-9.347576	 5.168945	 0.703820	 2.021906
-0.000624	 0.021143	 1.250392	 0.003811	-0.001694	-0.169005	 6.668783	-8.369118	 177.401300	 1.215241	-24.670250	-1.514153	-14.625390	 76.915440	 8.949231	-2.385833	 28.452760	 0.000004	-6.716874	-8.920308	-177.115300	-1.189997	-25.242990	 1.525677	 14.361940	 77.102580	-8.788652	 2.384658	 28.388730	 0.000004	-0.601119	 3.032425	-0.143754	 2.087369	 2.666479	 0.880721	-6.294508	-3.214246	-1.284329	-91.776090	 78.527430	 179.999900	 56.288110	 38.746970	-59.637410	-10.499510	 0.251460	-1.553658	-29.335780	 1.694917	-4.348986	-2.635965	 4.993658	 6.788941	-5.165319	 0.784187	 3.516649	-5.225038	 0.466231	 0.424329	-0.000002	-3.783157	-0.089647	-6.173759	 5.253644	 0.283504	 89.782160	 78.203870	 179.999900	-58.924510	 38.430800	 57.117710	 7.560075	 4.238420	 10.761050	 28.912070	-0.764060	 7.955453	 6.112037	 4.509576	-0.364401	 4.968462	 1.518543	-9.347576	 5.168945	 0.703820	 2.021906
-0.000619	 0.021502	 1.245327	 0.004276	-0.000935	-0.161205	 7.149931	-9.564529	 177.431900	 1.141394	-27.051280	-1.683421	-16.450810	 78.034390	 10.807930	-2.385833	 28.452760	 0.000004	-7.227751	-10.090290	-177.157500	-1.117258	-27.564820	 1.689215	 16.065680	 78.199610	-10.551780	 2.384658	 28.388730	 0.000004	-2.056118	 3.095058	-0.149371	 2.039258	 2.442642	 0.873765	-6.151378	-2.936488	-1.236676	-91.776160	 78.527430	 180.000000	 55.979830	 38.620880	-59.324270	-11.184220	 0.288957	-1.876974	-29.360890	 1.720801	-4.348193	-2.635965	 4.993658	 6.788941	-5.165319	 0.784187	 3.516649	-5.225038	 0.466231	 0.424329	-0.000002	-3.783157	-0.089647	-6.044775	 5.404497	 0.285551	 89.782100	 78.203900	 180.000000	-56.797340	 36.967020	 57.334590	 6.756914	 5.349155	 13.967810	 28.770760	-1.397993	 7.425951	 6.112037	 4.509576	-0.364401	 4.968462	 1.518543	-9.347576	 5.168945	 0.703820	 2.021906
-0.000612	 0.021871	 1.240214	 0.004746	-0.000127	-0.152761	 7.655941	-10.681660	 177.453000	 1.063939	-29.266990	-1.847524	-18.452700	 79.060910	 12.855540	-2.385833	 28.452760	 0.000004	-7.733942	-11.185010	-177.194200	-1.040987	-29.732450	 1.848269	 18.001040	 79.208380	-12.529740	 2.384658	 28.388730	 0.000004	-3.599438	 3.156994	-0.153095	 1.980730	 2.220946	 0.861683	-5.976435	-2.663252	-1.183922	-91.776180	 78.527490	 180.000000	 55.648150	 38.478710	-58.965990	-12.004190	 0.336709	-2.219771	-29.300910	 1.760043	-4.333148	-2.635965	 4.993658	 6.788941	-5.165319	 0.784187	 3.516649	-5.225038	 0.466231	 0.424329	-0.000002	-3.783157	-0.089647	-5.883658	 5.557382	 0.285801	 89.782160	 78.203890	 179.999900	-54.502860	 35.425330	 59.506400	 5.731771	 5.355222	 14.866940	 28.234270	-2.157737	 6.577251	 6.112037	 4.509576	-0.364401	 4.968462	 1.518543	-9.347576	 5.168945	 0.703820	 2.021906
